<?xml version="1.0" encoding="UTF-8" standalone="no"?>
<!DOCTYPE svg PUBLIC "-//W3C//DTD SVG 1.1//EN"
 "http://www.w3.org/Graphics/SVG/1.1/DTD/svg11.dtd">
<!-- Generated by graphviz version 12.2.1 (20241206.2353)
 -->
<!-- Title: JiTBlock Pages: 1 -->
<svg width="1147pt" height="648pt"
 viewBox="0.00 0.00 1146.69 648.00" xmlns="http://www.w3.org/2000/svg" xmlns:xlink="http://www.w3.org/1999/xlink">
<g id="graph0" class="graph" transform="scale(0.853755 0.853755) rotate(0) translate(4 755)">
<title>JiTBlock</title>
<polygon fill="white" stroke="none" points="-4,4 -4,-755 1339.11,-755 1339.11,4 -4,4"/>
<!-- x_in -->
<g id="node1" class="node">
<title>x_in</title>
<path fill="white" stroke="black" d="M1126.11,-751C1126.11,-751 1096.11,-751 1096.11,-751 1090.11,-751 1084.11,-745 1084.11,-739 1084.11,-739 1084.11,-727 1084.11,-727 1084.11,-721 1090.11,-715 1096.11,-715 1096.11,-715 1126.11,-715 1126.11,-715 1132.11,-715 1138.11,-721 1138.11,-727 1138.11,-727 1138.11,-739 1138.11,-739 1138.11,-745 1132.11,-751 1126.11,-751"/>
<text text-anchor="middle" x="1111.11" y="-727.6" font-family="Times,serif" font-size="12.00">Input x</text>
</g>
<!-- norm1 -->
<g id="node10" class="node">
<title>norm1</title>
<path fill="white" stroke="black" d="M1133.74,-686C1133.74,-686 1088.49,-686 1088.49,-686 1082.49,-686 1076.49,-680 1076.49,-674 1076.49,-674 1076.49,-662 1076.49,-662 1076.49,-656 1082.49,-650 1088.49,-650 1088.49,-650 1133.74,-650 1133.74,-650 1139.74,-650 1145.74,-656 1145.74,-662 1145.74,-662 1145.74,-674 1145.74,-674 1145.74,-680 1139.74,-686 1133.74,-686"/>
<text text-anchor="middle" x="1111.11" y="-662.6" font-family="Times,serif" font-size="12.00">RMSNorm</text>
</g>
<!-- x_in&#45;&gt;norm1 -->
<g id="edge8" class="edge">
<title>x_in&#45;&gt;norm1</title>
<path fill="none" stroke="black" d="M1111.11,-714.72C1111.11,-712.69 1111.11,-711.33 1111.11,-711.33 1111.11,-711.33 1111.11,-704.29 1111.11,-697.6"/>
<polygon fill="black" stroke="black" points="1114.61,-697.79 1111.11,-687.79 1107.61,-697.79 1114.61,-697.79"/>
</g>
<!-- add1 -->
<g id="node14" class="node">
<title>add1</title>
<path fill="white" stroke="black" d="M1127.74,-426C1127.74,-426 1094.49,-426 1094.49,-426 1088.49,-426 1082.49,-420 1082.49,-414 1082.49,-414 1082.49,-402 1082.49,-402 1082.49,-396 1088.49,-390 1094.49,-390 1094.49,-390 1127.74,-390 1127.74,-390 1133.74,-390 1139.74,-396 1139.74,-402 1139.74,-402 1139.74,-414 1139.74,-414 1139.74,-420 1133.74,-426 1127.74,-426"/>
<text text-anchor="middle" x="1111.11" y="-402.6" font-family="Times,serif" font-size="12.00">Residual</text>
</g>
<!-- x_in&#45;&gt;add1 -->
<g id="edge13" class="edge">
<title>x_in&#45;&gt;add1</title>
<path fill="none" stroke="black" d="M1083.8,-729.62C997.38,-718.92 735.55,-686.5 735.55,-686.5 735.55,-686.5 735.55,-455.5 735.55,-455.5 735.55,-455.5 974.02,-425.34 1070.91,-413.08"/>
<polygon fill="black" stroke="black" points="1071.28,-416.57 1080.76,-411.84 1070.4,-409.62 1071.28,-416.57"/>
</g>
<!-- c_in -->
<g id="node2" class="node">
<title>c_in</title>
<path fill="white" stroke="black" d="M368.36,-742C368.36,-742 305.86,-742 305.86,-742 299.86,-742 293.86,-736 293.86,-730 293.86,-730 293.86,-718 293.86,-718 293.86,-712 299.86,-706 305.86,-706 305.86,-706 368.36,-706 368.36,-706 374.36,-706 380.36,-712 380.36,-718 380.36,-718 380.36,-730 380.36,-730 380.36,-736 374.36,-742 368.36,-742"/>
<text text-anchor="middle" x="337.11" y="-718.6" font-family="Times,serif" font-size="12.00">Conditioning c</text>
</g>
<!-- adaLN -->
<g id="node3" class="node">
<title>adaLN</title>
<path fill="white" stroke="black" d="M393.49,-677C393.49,-677 280.74,-677 280.74,-677 274.74,-677 268.74,-671 268.74,-665 268.74,-665 268.74,-653 268.74,-653 268.74,-647 274.74,-641 280.74,-641 280.74,-641 393.49,-641 393.49,-641 399.49,-641 405.49,-647 405.49,-653 405.49,-653 405.49,-665 405.49,-665 405.49,-671 399.49,-677 393.49,-677"/>
<text text-anchor="middle" x="337.11" y="-660.35" font-family="Times,serif" font-size="12.00">AdaLN Modulation</text>
<text text-anchor="middle" x="337.11" y="-648.35" font-family="Times,serif" font-size="12.00">SiLU → Linear(6·hidden)</text>
</g>
<!-- c_in&#45;&gt;adaLN -->
<g id="edge1" class="edge">
<title>c_in&#45;&gt;adaLN</title>
<path fill="none" stroke="black" d="M337.11,-705.72C337.11,-703.69 337.11,-702.33 337.11,-702.33 337.11,-702.33 337.11,-695.29 337.11,-688.6"/>
<polygon fill="black" stroke="black" points="340.61,-688.79 337.11,-678.79 333.61,-688.79 340.61,-688.79"/>
</g>
<!-- shift_msa -->
<g id="node4" class="node">
<title>shift_msa</title>
<path fill="white" stroke="black" d="M355.61,-547C355.61,-547 318.61,-547 318.61,-547 312.61,-547 306.61,-541 306.61,-535 306.61,-535 306.61,-523 306.61,-523 306.61,-517 312.61,-511 318.61,-511 318.61,-511 355.61,-511 355.61,-511 361.61,-511 367.61,-517 367.61,-523 367.61,-523 367.61,-535 367.61,-535 367.61,-541 361.61,-547 355.61,-547"/>
<text text-anchor="middle" x="337.11" y="-523.6" font-family="Times,serif" font-size="12.00">shift_msa</text>
</g>
<!-- adaLN&#45;&gt;shift_msa -->
<g id="edge2" class="edge">
<title>adaLN&#45;&gt;shift_msa</title>
<path fill="none" stroke="black" d="M297.73,-640.57C282.53,-633.46 268.74,-627 268.74,-627 268.74,-627 247.24,-612.5 247.24,-612.5 247.24,-612.5 247.24,-576.5 247.24,-576.5 247.24,-576.5 268.74,-562 268.74,-562 268.74,-562 281.48,-555.85 295.96,-548.86"/>
<polygon fill="black" stroke="black" points="297.28,-552.11 304.76,-544.61 294.23,-545.81 297.28,-552.11"/>
</g>
<!-- scale_msa -->
<g id="node5" class="node">
<title>scale_msa</title>
<path fill="white" stroke="black" d="M357.11,-612C357.11,-612 317.11,-612 317.11,-612 311.11,-612 305.11,-606 305.11,-600 305.11,-600 305.11,-588 305.11,-588 305.11,-582 311.11,-576 317.11,-576 317.11,-576 357.11,-576 357.11,-576 363.11,-576 369.11,-582 369.11,-588 369.11,-588 369.11,-600 369.11,-600 369.11,-606 363.11,-612 357.11,-612"/>
<text text-anchor="middle" x="337.11" y="-588.6" font-family="Times,serif" font-size="12.00">scale_msa</text>
</g>
<!-- adaLN&#45;&gt;scale_msa -->
<g id="edge3" class="edge">
<title>adaLN&#45;&gt;scale_msa</title>
<path fill="none" stroke="black" d="M337.11,-640.72C337.11,-638.69 337.11,-637.33 337.11,-637.33 337.11,-637.33 337.11,-630.29 337.11,-623.6"/>
<polygon fill="black" stroke="black" points="340.61,-623.79 337.11,-613.79 333.61,-623.79 340.61,-623.79"/>
</g>
<!-- gate_msa -->
<g id="node6" class="node">
<title>gate_msa</title>
<path fill="white" stroke="black" d="M355.24,-482C355.24,-482 318.99,-482 318.99,-482 312.99,-482 306.99,-476 306.99,-470 306.99,-470 306.99,-458 306.99,-458 306.99,-452 312.99,-446 318.99,-446 318.99,-446 355.24,-446 355.24,-446 361.24,-446 367.24,-452 367.24,-458 367.24,-458 367.24,-470 367.24,-470 367.24,-476 361.24,-482 355.24,-482"/>
<text text-anchor="middle" x="337.11" y="-458.6" font-family="Times,serif" font-size="12.00">gate_msa</text>
</g>
<!-- adaLN&#45;&gt;gate_msa -->
<g id="edge4" class="edge">
<title>adaLN&#45;&gt;gate_msa</title>
<path fill="none" stroke="black" d="M297.73,-640.57C282.53,-633.46 268.74,-627 268.74,-627 268.74,-627 247.24,-612.5 247.24,-612.5 247.24,-612.5 247.24,-511.5 247.24,-511.5 247.24,-511.5 268.74,-497 268.74,-497 268.74,-497 281.66,-490.76 296.28,-483.71"/>
<polygon fill="black" stroke="black" points="297.68,-486.92 305.16,-479.42 294.63,-480.62 297.68,-486.92"/>
</g>
<!-- shift_mlp -->
<g id="node7" class="node">
<title>shift_mlp</title>
<path fill="white" stroke="black" d="M355.24,-328C355.24,-328 318.99,-328 318.99,-328 312.99,-328 306.99,-322 306.99,-316 306.99,-316 306.99,-304 306.99,-304 306.99,-298 312.99,-292 318.99,-292 318.99,-292 355.24,-292 355.24,-292 361.24,-292 367.24,-298 367.24,-304 367.24,-304 367.24,-316 367.24,-316 367.24,-322 361.24,-328 355.24,-328"/>
<text text-anchor="middle" x="337.11" y="-304.6" font-family="Times,serif" font-size="12.00">shift_mlp</text>
</g>
<!-- adaLN&#45;&gt;shift_mlp -->
<g id="edge5" class="edge">
<title>adaLN&#45;&gt;shift_mlp</title>
<path fill="none" stroke="black" d="M297.73,-640.57C282.53,-633.46 268.74,-627 268.74,-627 268.74,-627 247.24,-612.5 247.24,-612.5 247.24,-612.5 247.24,-373.5 247.24,-373.5 247.24,-373.5 276.59,-352.76 301.75,-334.98"/>
<polygon fill="black" stroke="black" points="303.73,-337.87 309.88,-329.24 299.69,-332.15 303.73,-337.87"/>
</g>
<!-- scale_mlp -->
<g id="node8" class="node">
<title>scale_mlp</title>
<path fill="white" stroke="black" d="M356.74,-409C356.74,-409 317.49,-409 317.49,-409 311.49,-409 305.49,-403 305.49,-397 305.49,-397 305.49,-385 305.49,-385 305.49,-379 311.49,-373 317.49,-373 317.49,-373 356.74,-373 356.74,-373 362.74,-373 368.74,-379 368.74,-385 368.74,-385 368.74,-397 368.74,-397 368.74,-403 362.74,-409 356.74,-409"/>
<text text-anchor="middle" x="337.11" y="-385.6" font-family="Times,serif" font-size="12.00">scale_mlp</text>
</g>
<!-- adaLN&#45;&gt;scale_mlp -->
<g id="edge6" class="edge">
<title>adaLN&#45;&gt;scale_mlp</title>
<path fill="none" stroke="black" d="M297.73,-640.57C282.53,-633.46 268.74,-627 268.74,-627 268.74,-627 247.24,-612.5 247.24,-612.5 247.24,-612.5 247.24,-446.5 247.24,-446.5 247.24,-446.5 268.74,-432 268.74,-432 268.74,-432 281.91,-424.1 296.7,-415.23"/>
<polygon fill="black" stroke="black" points="298.45,-418.26 305.23,-410.12 294.85,-412.26 298.45,-418.26"/>
</g>
<!-- gate_mlp -->
<g id="node9" class="node">
<title>gate_mlp</title>
<path fill="white" stroke="black" d="M354.86,-231C354.86,-231 319.36,-231 319.36,-231 313.36,-231 307.36,-225 307.36,-219 307.36,-219 307.36,-207 307.36,-207 307.36,-201 313.36,-195 319.36,-195 319.36,-195 354.86,-195 354.86,-195 360.86,-195 366.86,-201 366.86,-207 366.86,-207 366.86,-219 366.86,-219 366.86,-225 360.86,-231 354.86,-231"/>
<text text-anchor="middle" x="337.11" y="-207.6" font-family="Times,serif" font-size="12.00">gate_mlp</text>
</g>
<!-- adaLN&#45;&gt;gate_mlp -->
<g id="edge7" class="edge">
<title>adaLN&#45;&gt;gate_mlp</title>
<path fill="none" stroke="black" d="M297.73,-640.57C282.53,-633.46 268.74,-627 268.74,-627 268.74,-627 247.24,-612.5 247.24,-612.5 247.24,-612.5 247.24,-292.5 247.24,-292.5 247.24,-292.5 281.53,-262.17 307.74,-238.98"/>
<polygon fill="black" stroke="black" points="309.96,-241.69 315.13,-232.44 305.32,-236.45 309.96,-241.69"/>
</g>
<!-- mod1 -->
<g id="node11" class="node">
<title>mod1</title>
<path fill="white" stroke="black" d="M1143.86,-621C1143.86,-621 1078.36,-621 1078.36,-621 1072.36,-621 1066.36,-615 1066.36,-609 1066.36,-609 1066.36,-597 1066.36,-597 1066.36,-591 1072.36,-585 1078.36,-585 1078.36,-585 1143.86,-585 1143.86,-585 1149.86,-585 1155.86,-591 1155.86,-597 1155.86,-597 1155.86,-609 1155.86,-609 1155.86,-615 1149.86,-621 1143.86,-621"/>
<text text-anchor="middle" x="1111.11" y="-597.6" font-family="Times,serif" font-size="12.00">AdaLN (MSA)</text>
</g>
<!-- shift_msa&#45;&gt;mod1 -->
<g id="edge14" class="edge">
<title>shift_msa&#45;&gt;mod1</title>
<path fill="none" stroke="black" d="M367.9,-531.86C483.49,-542.94 903.38,-583.18 1055.02,-597.72"/>
<polygon fill="black" stroke="black" points="1054.52,-601.19 1064.8,-598.66 1055.18,-594.22 1054.52,-601.19"/>
</g>
<!-- scale_msa&#45;&gt;mod1 -->
<g id="edge15" class="edge">
<title>scale_msa&#45;&gt;mod1</title>
<path fill="none" stroke="black" d="M369.33,-594.36C486.86,-595.73 903.66,-600.59 1054.83,-602.36"/>
<polygon fill="black" stroke="black" points="1054.54,-605.85 1064.58,-602.47 1054.62,-598.85 1054.54,-605.85"/>
</g>
<!-- gmsa -->
<g id="node13" class="node">
<title>gmsa</title>
<path fill="white" stroke="black" d="M1134.11,-491C1134.11,-491 1088.11,-491 1088.11,-491 1082.11,-491 1076.11,-485 1076.11,-479 1076.11,-479 1076.11,-467 1076.11,-467 1076.11,-461 1082.11,-455 1088.11,-455 1088.11,-455 1134.11,-455 1134.11,-455 1140.11,-455 1146.11,-461 1146.11,-467 1146.11,-467 1146.11,-479 1146.11,-479 1146.11,-485 1140.11,-491 1134.11,-491"/>
<text text-anchor="middle" x="1111.11" y="-467.6" font-family="Times,serif" font-size="12.00">× gate_msa</text>
</g>
<!-- gate_msa&#45;&gt;gmsa -->
<g id="edge16" class="edge">
<title>gate_msa&#45;&gt;gmsa</title>
<path fill="none" stroke="black" d="M367.43,-464.34C484.77,-465.71 921.03,-470.8 1064.24,-472.47"/>
<polygon fill="black" stroke="black" points="1064.06,-475.96 1074.1,-472.58 1064.14,-468.96 1064.06,-475.96"/>
</g>
<!-- mod2 -->
<g id="node16" class="node">
<title>mod2</title>
<path fill="white" stroke="black" d="M1143.11,-296C1143.11,-296 1079.11,-296 1079.11,-296 1073.11,-296 1067.11,-290 1067.11,-284 1067.11,-284 1067.11,-272 1067.11,-272 1067.11,-266 1073.11,-260 1079.11,-260 1079.11,-260 1143.11,-260 1143.11,-260 1149.11,-260 1155.11,-266 1155.11,-272 1155.11,-272 1155.11,-284 1155.11,-284 1155.11,-290 1149.11,-296 1143.11,-296"/>
<text text-anchor="middle" x="1111.11" y="-272.6" font-family="Times,serif" font-size="12.00">AdaLN (MLP)</text>
</g>
<!-- shift_mlp&#45;&gt;mod2 -->
<g id="edge23" class="edge">
<title>shift_mlp&#45;&gt;mod2</title>
<path fill="none" stroke="black" d="M367.43,-308.78C482.45,-304.02 903.95,-286.55 1055.43,-280.27"/>
<polygon fill="black" stroke="black" points="1055.35,-283.77 1065.2,-279.86 1055.06,-276.78 1055.35,-283.77"/>
</g>
<!-- scale_mlp&#45;&gt;mod2 -->
<g id="edge24" class="edge">
<title>scale_mlp&#45;&gt;mod2</title>
<path fill="none" stroke="black" d="M368.85,-386.5C485.97,-369.36 905.19,-307.99 1055.77,-285.95"/>
<polygon fill="black" stroke="black" points="1056.1,-289.44 1065.49,-284.53 1055.08,-282.52 1056.1,-289.44"/>
</g>
<!-- gmlp -->
<g id="node18" class="node">
<title>gmlp</title>
<path fill="white" stroke="black" d="M1133.74,-166C1133.74,-166 1088.49,-166 1088.49,-166 1082.49,-166 1076.49,-160 1076.49,-154 1076.49,-154 1076.49,-142 1076.49,-142 1076.49,-136 1082.49,-130 1088.49,-130 1088.49,-130 1133.74,-130 1133.74,-130 1139.74,-130 1145.74,-136 1145.74,-142 1145.74,-142 1145.74,-154 1145.74,-154 1145.74,-160 1139.74,-166 1133.74,-166"/>
<text text-anchor="middle" x="1111.11" y="-142.6" font-family="Times,serif" font-size="12.00">× gate_mlp</text>
</g>
<!-- gate_mlp&#45;&gt;gmlp -->
<g id="edge25" class="edge">
<title>gate_mlp&#45;&gt;gmlp</title>
<path fill="none" stroke="black" d="M366.97,-210.57C483.85,-200.73 922.65,-163.78 1065.13,-151.79"/>
<polygon fill="black" stroke="black" points="1065.25,-155.29 1074.92,-150.96 1064.66,-148.31 1065.25,-155.29"/>
</g>
<!-- norm1&#45;&gt;mod1 -->
<g id="edge9" class="edge">
<title>norm1&#45;&gt;mod1</title>
<path fill="none" stroke="black" d="M1111.11,-649.72C1111.11,-647.69 1111.11,-646.33 1111.11,-646.33 1111.11,-646.33 1111.11,-639.29 1111.11,-632.6"/>
<polygon fill="black" stroke="black" points="1114.61,-632.79 1111.11,-622.79 1107.61,-632.79 1114.61,-632.79"/>
</g>
<!-- attn -->
<g id="node12" class="node">
<title>attn</title>
<path fill="white" stroke="black" d="M1144.61,-556C1144.61,-556 1077.61,-556 1077.61,-556 1071.61,-556 1065.61,-550 1065.61,-544 1065.61,-544 1065.61,-532 1065.61,-532 1065.61,-526 1071.61,-520 1077.61,-520 1077.61,-520 1144.61,-520 1144.61,-520 1150.61,-520 1156.61,-526 1156.61,-532 1156.61,-532 1156.61,-544 1156.61,-544 1156.61,-550 1150.61,-556 1144.61,-556"/>
<text text-anchor="middle" x="1111.11" y="-538.6" font-family="Times,serif" font-size="12.00">Self&#45;Attention</text>
<text text-anchor="middle" x="1111.11" y="-526.6" font-family="Times,serif" font-size="12.00">(QKV + RoPE)</text>
</g>
<!-- mod1&#45;&gt;attn -->
<g id="edge10" class="edge">
<title>mod1&#45;&gt;attn</title>
<path fill="none" stroke="black" d="M1111.11,-584.72C1111.11,-582.69 1111.11,-581.33 1111.11,-581.33 1111.11,-581.33 1111.11,-574.29 1111.11,-567.6"/>
<polygon fill="black" stroke="black" points="1114.61,-567.79 1111.11,-557.79 1107.61,-567.79 1114.61,-567.79"/>
</g>
<!-- attn&#45;&gt;gmsa -->
<g id="edge11" class="edge">
<title>attn&#45;&gt;gmsa</title>
<path fill="none" stroke="black" d="M1111.11,-519.72C1111.11,-517.69 1111.11,-516.33 1111.11,-516.33 1111.11,-516.33 1111.11,-509.29 1111.11,-502.6"/>
<polygon fill="black" stroke="black" points="1114.61,-502.79 1111.11,-492.79 1107.61,-502.79 1114.61,-502.79"/>
</g>
<!-- gmsa&#45;&gt;add1 -->
<g id="edge12" class="edge">
<title>gmsa&#45;&gt;add1</title>
<path fill="none" stroke="black" d="M1111.11,-454.72C1111.11,-452.69 1111.11,-451.33 1111.11,-451.33 1111.11,-451.33 1111.11,-444.29 1111.11,-437.6"/>
<polygon fill="black" stroke="black" points="1114.61,-437.79 1111.11,-427.79 1107.61,-437.79 1114.61,-437.79"/>
</g>
<!-- norm2 -->
<g id="node15" class="node">
<title>norm2</title>
<path fill="white" stroke="black" d="M1133.74,-361C1133.74,-361 1088.49,-361 1088.49,-361 1082.49,-361 1076.49,-355 1076.49,-349 1076.49,-349 1076.49,-337 1076.49,-337 1076.49,-331 1082.49,-325 1088.49,-325 1088.49,-325 1133.74,-325 1133.74,-325 1139.74,-325 1145.74,-331 1145.74,-337 1145.74,-337 1145.74,-349 1145.74,-349 1145.74,-355 1139.74,-361 1133.74,-361"/>
<text text-anchor="middle" x="1111.11" y="-337.6" font-family="Times,serif" font-size="12.00">RMSNorm</text>
</g>
<!-- add1&#45;&gt;norm2 -->
<g id="edge17" class="edge">
<title>add1&#45;&gt;norm2</title>
<path fill="none" stroke="black" d="M1111.11,-389.72C1111.11,-387.69 1111.11,-386.33 1111.11,-386.33 1111.11,-386.33 1111.11,-379.29 1111.11,-372.6"/>
<polygon fill="black" stroke="black" points="1114.61,-372.79 1111.11,-362.79 1107.61,-372.79 1114.61,-372.79"/>
</g>
<!-- add2 -->
<g id="node19" class="node">
<title>add2</title>
<path fill="white" stroke="black" d="M1127.74,-101C1127.74,-101 1094.49,-101 1094.49,-101 1088.49,-101 1082.49,-95 1082.49,-89 1082.49,-89 1082.49,-77 1082.49,-77 1082.49,-71 1088.49,-65 1094.49,-65 1094.49,-65 1127.74,-65 1127.74,-65 1133.74,-65 1139.74,-71 1139.74,-77 1139.74,-77 1139.74,-89 1139.74,-89 1139.74,-95 1133.74,-101 1127.74,-101"/>
<text text-anchor="middle" x="1111.11" y="-77.6" font-family="Times,serif" font-size="12.00">Residual</text>
</g>
<!-- add1&#45;&gt;add2 -->
<g id="edge22" class="edge">
<title>add1&#45;&gt;add2</title>
<path fill="none" stroke="black" d="M1082.26,-404.43C994.32,-393.54 735.55,-361.5 735.55,-361.5 735.55,-361.5 735.55,-129.5 735.55,-129.5 735.55,-129.5 974.02,-99.97 1070.91,-87.98"/>
<polygon fill="black" stroke="black" points="1071.27,-91.46 1080.76,-86.76 1070.41,-84.51 1071.27,-91.46"/>
</g>
<!-- norm2&#45;&gt;mod2 -->
<g id="edge18" class="edge">
<title>norm2&#45;&gt;mod2</title>
<path fill="none" stroke="black" d="M1111.11,-324.72C1111.11,-322.69 1111.11,-321.33 1111.11,-321.33 1111.11,-321.33 1111.11,-314.29 1111.11,-307.6"/>
<polygon fill="black" stroke="black" points="1114.61,-307.79 1111.11,-297.79 1107.61,-307.79 1114.61,-307.79"/>
</g>
<!-- mlp -->
<g id="node17" class="node">
<title>mlp</title>
<path fill="white" stroke="black" d="M1141.99,-231C1141.99,-231 1080.24,-231 1080.24,-231 1074.24,-231 1068.24,-225 1068.24,-219 1068.24,-219 1068.24,-207 1068.24,-207 1068.24,-201 1074.24,-195 1080.24,-195 1080.24,-195 1141.99,-195 1141.99,-195 1147.99,-195 1153.99,-201 1153.99,-207 1153.99,-207 1153.99,-219 1153.99,-219 1153.99,-225 1147.99,-231 1141.99,-231"/>
<text text-anchor="middle" x="1111.11" y="-207.6" font-family="Times,serif" font-size="12.00">SwiGLU FFN</text>
</g>
<!-- mod2&#45;&gt;mlp -->
<g id="edge19" class="edge">
<title>mod2&#45;&gt;mlp</title>
<path fill="none" stroke="black" d="M1111.11,-259.72C1111.11,-257.69 1111.11,-256.33 1111.11,-256.33 1111.11,-256.33 1111.11,-249.29 1111.11,-242.6"/>
<polygon fill="black" stroke="black" points="1114.61,-242.79 1111.11,-232.79 1107.61,-242.79 1114.61,-242.79"/>
</g>
<!-- mlp&#45;&gt;gmlp -->
<g id="edge20" class="edge">
<title>mlp&#45;&gt;gmlp</title>
<path fill="none" stroke="black" d="M1111.11,-194.72C1111.11,-192.69 1111.11,-191.33 1111.11,-191.33 1111.11,-191.33 1111.11,-184.29 1111.11,-177.6"/>
<polygon fill="black" stroke="black" points="1114.61,-177.79 1111.11,-167.79 1107.61,-177.79 1114.61,-177.79"/>
</g>
<!-- gmlp&#45;&gt;add2 -->
<g id="edge21" class="edge">
<title>gmlp&#45;&gt;add2</title>
<path fill="none" stroke="black" d="M1111.11,-129.72C1111.11,-127.69 1111.11,-126.33 1111.11,-126.33 1111.11,-126.33 1111.11,-119.29 1111.11,-112.6"/>
<polygon fill="black" stroke="black" points="1114.61,-112.79 1111.11,-102.79 1107.61,-112.79 1114.61,-112.79"/>
</g>
<!-- x_out -->
<g id="node20" class="node">
<title>x_out</title>
<path fill="white" stroke="black" d="M1128.11,-36C1128.11,-36 1094.11,-36 1094.11,-36 1088.11,-36 1082.11,-30 1082.11,-24 1082.11,-24 1082.11,-12 1082.11,-12 1082.11,-6 1088.11,0 1094.11,0 1094.11,0 1128.11,0 1128.11,0 1134.11,0 1140.11,-6 1140.11,-12 1140.11,-12 1140.11,-24 1140.11,-24 1140.11,-30 1134.11,-36 1128.11,-36"/>
<text text-anchor="middle" x="1111.11" y="-12.6" font-family="Times,serif" font-size="12.00">Output x</text>
</g>
<!-- add2&#45;&gt;x_out -->
<g id="edge26" class="edge">
<title>add2&#45;&gt;x_out</title>
<path fill="none" stroke="black" d="M1111.11,-64.72C1111.11,-62.69 1111.11,-61.33 1111.11,-61.33 1111.11,-61.33 1111.11,-54.29 1111.11,-47.6"/>
<polygon fill="black" stroke="black" points="1114.61,-47.79 1111.11,-37.79 1107.61,-47.79 1114.61,-47.79"/>
</g>
</g>
</svg>
