<?xml version="1.0" encoding="UTF-8" standalone="no"?>
<!DOCTYPE svg PUBLIC "-//W3C//DTD SVG 1.1//EN"
 "http://www.w3.org/Graphics/SVG/1.1/DTD/svg11.dtd">
<!-- Generated by graphviz version 12.2.1 (20241206.2353)
 -->
<!-- Title: JiTBlockAbstract Pages: 1 -->
<svg width="1146pt" height="648pt"
 viewBox="0.00 0.00 1145.85 648.00" xmlns="http://www.w3.org/2000/svg" xmlns:xlink="http://www.w3.org/1999/xlink">
<g id="graph0" class="graph" transform="scale(0.987805 0.987805) rotate(0) translate(4 652)">
<title>JiTBlockAbstract</title>
<polygon fill="white" stroke="none" points="-4,4 -4,-652 1156,-652 1156,4 -4,4"/>
<!-- LR -->
<g id="node1" class="node">
<title>LR</title>
<path fill="none" stroke="black" d="M480.2,-586.02C480.2,-586.02 345.8,-586.02 345.8,-586.02 339.8,-586.02 333.8,-580.02 333.8,-574.02 333.8,-574.02 333.8,-526.02 333.8,-526.02 333.8,-520.02 339.8,-514.02 345.8,-514.02 345.8,-514.02 480.2,-514.02 480.2,-514.02 486.2,-514.02 492.2,-520.02 492.2,-526.02 492.2,-526.02 492.2,-574.02 492.2,-574.02 492.2,-580.02 486.2,-586.02 480.2,-586.02"/>
<text text-anchor="middle" x="413" y="-541.92" font-family="Times,serif" font-size="18.00">LR tokens</text>
</g>
<!-- SA -->
<g id="node3" class="node">
<title>SA</title>
<path fill="#f2f2f2" stroke="black" d="M798,-360.02C798,-360.02 638,-360.02 638,-360.02 632,-360.02 626,-354.02 626,-348.02 626,-348.02 626,-300.02 626,-300.02 626,-294.02 632,-288.02 638,-288.02 638,-288.02 798,-288.02 798,-288.02 804,-288.02 810,-294.02 810,-300.02 810,-300.02 810,-348.02 810,-348.02 810,-354.02 804,-360.02 798,-360.02"/>
<text text-anchor="middle" x="718" y="-333.92" font-family="Times,serif" font-size="18.00">JiTBlock</text>
<text text-anchor="middle" x="718" y="-315.92" font-family="Times,serif" font-size="18.00">Self&#45;Attention</text>
<text text-anchor="middle" x="718" y="-297.92" font-family="Times,serif" font-size="18.00">(tokens are symmetric)</text>
</g>
<!-- LR&#45;&gt;SA -->
<g id="edge1" class="edge">
<title>LR&#45;&gt;SA</title>
<path fill="none" stroke="black" d="M462.68,-513.71C516.27,-473.73 602.37,-409.52 659.31,-367.05"/>
<polygon fill="black" stroke="black" points="661.05,-370.11 666.97,-361.33 656.87,-364.5 661.05,-370.11"/>
</g>
<!-- HRn -->
<g id="node2" class="node">
<title>HRn</title>
<path fill="none" stroke="black" d="M480.2,-360.02C480.2,-360.02 345.8,-360.02 345.8,-360.02 339.8,-360.02 333.8,-354.02 333.8,-348.02 333.8,-348.02 333.8,-300.02 333.8,-300.02 333.8,-294.02 339.8,-288.02 345.8,-288.02 345.8,-288.02 480.2,-288.02 480.2,-288.02 486.2,-288.02 492.2,-294.02 492.2,-300.02 492.2,-300.02 492.2,-348.02 492.2,-348.02 492.2,-354.02 486.2,-360.02 480.2,-360.02"/>
<text text-anchor="middle" x="413" y="-315.92" font-family="Times,serif" font-size="18.00">Noisy HR tokens</text>
</g>
<!-- HRn&#45;&gt;SA -->
<g id="edge2" class="edge">
<title>HRn&#45;&gt;SA</title>
<path fill="none" stroke="black" d="M492.42,-324.02C529.61,-324.02 574.52,-324.02 614.37,-324.02"/>
<polygon fill="black" stroke="black" points="614.23,-327.52 624.23,-324.02 614.23,-320.52 614.23,-327.52"/>
</g>
<!-- OUT -->
<g id="node6" class="node">
<title>OUT</title>
<path fill="none" stroke="black" d="M1090.2,-360.02C1090.2,-360.02 955.8,-360.02 955.8,-360.02 949.8,-360.02 943.8,-354.02 943.8,-348.02 943.8,-348.02 943.8,-300.02 943.8,-300.02 943.8,-294.02 949.8,-288.02 955.8,-288.02 955.8,-288.02 1090.2,-288.02 1090.2,-288.02 1096.2,-288.02 1102.2,-294.02 1102.2,-300.02 1102.2,-300.02 1102.2,-348.02 1102.2,-348.02 1102.2,-354.02 1096.2,-360.02 1090.2,-360.02"/>
<text text-anchor="middle" x="1023" y="-315.92" font-family="Times,serif" font-size="18.00">Output tokens</text>
</g>
<!-- SA&#45;&gt;OUT -->
<g id="edge5" class="edge">
<title>SA&#45;&gt;OUT</title>
<path fill="none" stroke="black" d="M810.32,-324.02C848.94,-324.02 893.79,-324.02 932.23,-324.02"/>
<polygon fill="black" stroke="black" points="931.91,-327.52 941.91,-324.02 931.91,-320.52 931.91,-327.52"/>
</g>
<!-- Mod -->
<g id="node4" class="node">
<title>Mod</title>
<path fill="none" stroke="black" stroke-dasharray="5,2" d="M480.2,-134.02C480.2,-134.02 345.8,-134.02 345.8,-134.02 339.8,-134.02 333.8,-128.02 333.8,-122.02 333.8,-122.02 333.8,-74.02 333.8,-74.02 333.8,-68.02 339.8,-62.02 345.8,-62.02 345.8,-62.02 480.2,-62.02 480.2,-62.02 486.2,-62.02 492.2,-68.02 492.2,-74.02 492.2,-74.02 492.2,-122.02 492.2,-122.02 492.2,-128.02 486.2,-134.02 480.2,-134.02"/>
<text text-anchor="middle" x="413" y="-98.92" font-family="Times,serif" font-size="18.00">AdaLN + Gate</text>
<text text-anchor="middle" x="413" y="-80.92" font-family="Times,serif" font-size="18.00">(shift / scale)</text>
</g>
<!-- Mod&#45;&gt;SA -->
<g id="edge4" class="edge">
<title>Mod&#45;&gt;SA</title>
<path fill="none" stroke="black" stroke-dasharray="5,2" d="M462.68,-134.33C516.27,-174.3 602.37,-238.52 659.31,-280.99"/>
<polygon fill="black" stroke="black" points="656.87,-283.53 666.97,-286.7 661.05,-277.92 656.87,-283.53"/>
</g>
<!-- C -->
<g id="node5" class="node">
<title>C</title>
<path fill="none" stroke="black" d="M196.2,-134.02C196.2,-134.02 61.8,-134.02 61.8,-134.02 55.8,-134.02 49.8,-128.02 49.8,-122.02 49.8,-122.02 49.8,-74.02 49.8,-74.02 49.8,-68.02 55.8,-62.02 61.8,-62.02 61.8,-62.02 196.2,-62.02 196.2,-62.02 202.2,-62.02 208.2,-68.02 208.2,-74.02 208.2,-74.02 208.2,-122.02 208.2,-122.02 208.2,-128.02 202.2,-134.02 196.2,-134.02"/>
<text text-anchor="middle" x="129" y="-89.92" font-family="Times,serif" font-size="18.00">Condition c</text>
</g>
<!-- C&#45;&gt;Mod -->
<g id="edge3" class="edge">
<title>C&#45;&gt;Mod</title>
<path fill="none" stroke="black" d="M208.55,-98.02C243.85,-98.02 285.69,-98.02 322.23,-98.02"/>
<polygon fill="black" stroke="black" points="321.87,-101.52 331.87,-98.02 321.87,-94.52 321.87,-101.52"/>
</g>
</g>
</svg>
